<svg width="38" height="21" viewBox="0 0 38 21" fill="none" xmlns="http://www.w3.org/2000/svg">
<g clip-path="url(#clip0_4006_266)">
<path d="M7.83227 6.81793C8.19789 6.68215 8.58788 6.60973 8.99251 6.60973C10.7637 6.60973 12.2425 8.01102 12.5805 9.87397L15.0911 9.30368C14.5158 6.13902 12.0036 3.75647 8.99251 3.75647C8.30189 3.75647 7.64052 3.88139 7.01978 4.11313L7.83227 6.81793Z" fill="#FFCB05"/>
<path d="M4.86999 15.881L6.5681 13.7429C5.81085 12.9952 5.33311 11.9035 5.33311 10.6869C5.33311 9.47206 5.81085 8.38036 6.5681 7.63445L4.86999 5.49451C3.583 6.76544 2.77051 8.62115 2.77051 10.6869C2.77051 12.7544 3.583 14.6101 4.86999 15.881" fill="#00A4E0"/>
<path d="M12.5805 11.5052C12.2408 13.3664 10.7637 14.7659 8.99413 14.7659C8.58788 14.7659 8.19626 14.6934 7.83227 14.5559L7.01978 17.2643C7.64052 17.4942 8.30351 17.6191 8.99413 17.6191C12.002 17.6191 14.5126 15.2402 15.0911 12.0792L12.5805 11.5052Z" fill="#EF4123"/>
<path d="M17.2863 13.8316C17.2035 13.6831 17.093 13.4459 17.0247 13.2703C16.6266 12.242 16.6087 11.1775 16.9435 10.1564C17.3123 9.03569 18.0176 8.17935 18.9292 7.74122C20.0748 7.19266 21.3407 7.29948 22.4392 8.02546C23.1363 8.47083 23.6303 9.1588 24.0056 10.1328C24.0528 10.2577 24.095 10.3899 24.1373 10.504L17.2863 13.8316ZM19.5743 9.39416C18.7602 9.78341 18.341 10.6343 18.4287 11.6301L21.8737 9.97713C21.2806 9.20226 20.5103 8.94517 19.5743 9.39416V9.39416ZM22.3027 12.9897C22.301 12.9897 22.301 12.9915 22.301 12.9915L22.2295 12.9372C22.0232 13.3083 21.703 13.6107 21.2984 13.8062C20.5282 14.1792 19.8148 14.0832 19.3013 13.5817L19.2542 13.6614C19.2542 13.6614 19.2542 13.6596 19.2526 13.6596L18.3783 15.117C18.5961 15.2854 18.8284 15.4266 19.0722 15.5406C20.0374 15.9878 21.0254 15.9661 21.9988 15.4954C22.7024 15.155 23.2549 14.6372 23.6319 13.98L22.3027 12.9897ZM26.5309 5.59766V13.6976L27.6619 14.2081L27.02 15.8774L25.772 15.298C25.4925 15.1622 25.3008 14.9559 25.1578 14.7223C25.0196 14.4851 24.9173 14.1574 24.9173 13.7193V5.59766H26.5309ZM29.4591 11.6355C29.4591 10.9457 29.7337 10.3265 30.166 9.90652L29.0057 8.4654C28.2192 9.24027 27.7236 10.3718 27.7236 11.6319C27.722 12.8938 28.2176 14.0271 29.0025 14.802L30.1611 13.3608C29.7305 12.939 29.4591 12.3235 29.4591 11.6355V11.6355ZM31.5196 13.933C31.2921 13.933 31.0711 13.8895 30.8663 13.8135L30.3122 15.6474C30.6908 15.7887 31.0955 15.8665 31.518 15.8665C33.3542 15.8683 34.8865 14.4163 35.2424 12.4882L33.5394 12.1008C33.3461 13.149 32.5157 13.9348 31.5196 13.933V13.933ZM31.5245 7.40448C31.1036 7.40448 30.699 7.48052 30.3203 7.61992L30.8696 9.45572C31.076 9.37968 31.2953 9.33804 31.5228 9.33804C32.5206 9.33985 33.3526 10.1292 33.5411 11.1793L35.244 10.7954C34.8947 8.8637 33.3623 7.40629 31.5245 7.40448V7.40448Z" fill="white"/>
</g>
<defs>
<clipPath id="clip0_4006_266">
<rect width="38" height="20" fill="white" transform="translate(0 0.691406)"/>
</clipPath>
</defs>
</svg>
